<?xml version="1.0" encoding="UTF-8"?>
<svg width="297px" height="452px" viewBox="0 0 297 452" version="1.1" xmlns="http://www.w3.org/2000/svg" xmlns:xlink="http://www.w3.org/1999/xlink">
    <!-- Generator: Sketch 63 (92445) - https://sketch.com -->
    <title>坐着男</title>
    <desc>Created with Sketch.</desc>
    <defs>
        <path d="M69.7620625,55.5399992 C74.8199255,53.7231513 77.1336977,55.1297314 76.7033791,59.7597395 C76.0579012,66.7047516 74.2016415,66.5698323 69.2103795,71.1148009 C66.6009397,87.5501983 58.1258968,93.3187679 39.3138652,93.3187679 C26.7725108,93.3187679 18.6175911,85.1480289 14.8491061,68.8065509 C11.3983777,67.0857332 9.13042341,64.865486 8.04524324,62.1458093 C6.59329161,58.7906818 7.11906589,50.3454092 12.0098503,50.3454092 C14.4787847,50.6025042 16.7572644,51.9264688 18.8452896,54.3173031 L18.8452896,27.5818417 L69.7620625,27.5818417 L69.7620625,55.5399992 Z" id="path-1"></path>
        <polygon id="path-3" points="127.718556 140.398298 107.880261 229.549984 173.265356 252.117366 193.875558 159.314463 136.168686 138.430226"></polygon>
        <path d="M40.5643567,5.84984712 C43.8066272,8.33301165 47.7290455,12.7962353 51.8547214,15.9732741 C54.2923077,17.7287614 55.9718126,18.3342966 56.8932358,17.7898796 C61.4075122,16.6802854 64.633241,16.9150424 66.5704221,18.4941506 C69.4761938,20.8628129 69.1363899,24.4950275 67.7437919,29.021594 C66.8985172,31.4313616 65.2622768,34.2065928 64.1247808,37.2553611 C63.2127412,40.2866908 63.6018714,45.0235172 65.9344109,48.6452687 C67.4894372,51.0597696 75.5817854,60.8325361 90.2114557,77.9635682 C93.5015412,81.8375983 94.5848945,87.8572425 93.4615155,96.0225008 C91.7764469,108.270388 88.117327,110.465163 85.2484255,108.324697 C58.0770687,90.6160316 29.9718325,67.9366962 0.932716837,40.2866908 C15.4045382,28.0206597 28.6150848,16.5417118 40.5643567,5.84984712 Z" id="path-5"></path>
        <path d="M46.7442481,361.492048 C52.0953595,354.298712 58.6415816,353.292264 65.4655612,356.409937 C70.014881,358.488385 71.9650165,361.757941 71.3159678,366.218605 L82.5693179,359.185109 C84.6275982,358.719454 85.7976505,359.472594 86.0794749,361.444528 C88.5487966,375.189871 90.1025026,389.598382 90.7405931,404.670061 L68.4601028,423.973115 C61.3636939,430.318944 57.332855,434.060524 56.3675861,435.197854 C54.9196827,436.903848 36.198581,458.731755 3.22464923,449.684107 C1.4143548,440.436994 4.75957961,430.612079 13.2603237,420.209363 C20.2792836,413.466099 25.6601762,407.667178 29.4030014,402.8126 C40.5330485,383.294981 41.2019691,386.236565 46.7442481,361.492048 Z" id="path-7"></path>
    </defs>
    <g id="页面-1" stroke="none" stroke-width="1" fill="none" fill-rule="evenodd">
        <g id="iPhone-8" transform="translate(-55.000000, -1342.000000)">
            <g id="编组-6" transform="translate(53.000000, 0.000000)">
                <g id="坐着男" transform="translate(0.000000, 1342.000000)">
                    <path d="M122.069316,69.5247728 L109.608599,72.5232183 C96.7715046,87.2110766 91.1222497,97.6324499 92.6608339,103.787338 C94.199418,109.942227 110.187162,116.499422 140.624066,123.458925 L180.172792,100.581453 C178.773717,87.3553425 173.462412,78.0025975 164.238879,72.5232183 C155.015346,67.043839 140.958825,66.0443572 122.069316,69.5247728 Z" id="路径-235" fill="#B92C3F"></path>
                    <path d="M125.111607,81.6525829 C125.477652,87.8789993 124.804521,92.2614065 123.092215,94.7998047 C121.379909,97.3382029 113.503966,99.6915856 99.4643854,101.859953 L126.102121,126.595384 L175.681601,113.515426 L158.623645,96.6258769 L160.513493,78.7258849 L125.111607,81.6525829 Z" id="路径-232" fill="#FD8E68"></path>
                    <g id="编组-18" transform="translate(102.272376, 0.000000)">
                        <mask id="mask-2" fill="white">
                            <use xlink:href="#path-1"></use>
                        </mask>
                        <use id="路径-230" fill="#FFA788" xlink:href="#path-1"></use>
                        <path d="M-1.8488612e-13,9.78808871e-14 C4.890815,8.8779164 6.92278746,18.7919357 6.09591737,29.742058 C6.09591737,45.3596543 7.7143455,48.8586114 8.29645274,53.0248214 C10.840778,47.6737509 17.0980337,53.7260406 18.3445522,56.1519078 C18.7877421,54.9393946 21.409389,54.4327909 21.409389,40.2406031 C21.409389,35.8510543 24.7181172,35.378966 27.1273866,36.7630939 C34.4052685,41.4561992 64.1362404,43.6953175 69.7620625,36.7630939 C69.7620625,45.0329839 69.7105252,51.4959219 69.6074505,56.1519078 C71.1085209,55.5237439 72.2978864,53.5828882 73.1755471,50.3293407 C73.6071528,43.2984644 76.7033791,34.0575472 76.7033791,28.9281728 C76.7033791,23.7987985 72.5198551,17.809716 69.7620625,16.6287792 C70.2403789,16.6287792 71.7587529,17.1493219 74.2303031,17.809716 C72.8423449,13.9927144 68.072161,14.2922575 67.2256781,12.4803193 C64.8518133,7.39894481 62.1337579,8.0852275 60.2044242,6.70464963 C61.4020834,8.57176489 62.4002885,9.22627352 62.4002885,10.0560402 C61.4020834,9.38396843 58.0785668,4.82314752 51.1145016,4.07764668 C41.5767354,2.83514529 34.0183803,6.98005521 21.9737773,6.06415418 C13.944042,5.45355349 6.61944954,3.43216877 -1.8488612e-13,9.78808871e-14 Z" id="路径-231" fill="#5E120F"></path>
                        <path d="M16.5700484,66.0240952 C16.5700484,66.0240952 14.510797,62.4976333 16.352564,57.3483837 C14.8508245,53.8663895 11.8002221,52.2768488 10.5208416,55.6753976 C7.99860115,62.3754824 16.5700484,66.0240952 16.5700484,66.0240952 Z" id="路径-259" fill="#EF5F32"></path>
                        <path d="M75.0061035,66.4393834 C75.0061035,66.4393834 73.4830763,64.0203982 74.1100078,59.9077679 C74.1100078,56.5143196 70.5610003,57.0207868 70.5610003,59.9077679 C70.5610003,62.794749 75.0061035,66.4393834 75.0061035,66.4393834 Z" id="路径-259" fill="#EF5F32" transform="translate(72.783552, 61.994087) scale(-1, 1) translate(-72.783552, -61.994087) "></path>
                    </g>
                    <path d="M115.674575,95.1685069 C95.3710854,100.098154 82.2975211,105.054043 76.4538823,110.036173 C70.6102436,115.018302 51.7107698,143.633078 19.7554608,195.880501 C48.3262424,211.448701 63.7286924,219.85428 65.9628109,221.097238 C84.8489982,224.923104 107.70497,249.239697 134.530727,294.047017 L212.548828,256.420898 L206.263951,221.097238 L252.581912,192.793866 C239.429199,165.204334 223.396468,139.404649 204.483717,115.39481 C198.53964,110.353555 188.938935,103.611454 175.681601,95.1685069 L149.098174,111.685368 L115.674575,95.1685069 Z" id="路径-234" fill="#F93B50"></path>
                    <polygon id="路径-255" fill="#DC2D3A" points="92.413829 136.911571 65.9349091 224.36075 85.201513 237.8692"></polygon>
                    <polygon id="路径-256" fill="#DC2D3A" points="182.111966 140.398298 210.021724 238.459617 215.567203 252.117366 206.257972 256.576351"></polygon>
                    <path d="M150.571488,111.28976 C127.46881,101.745356 115.605402,94.5038465 114.981266,89.5652304 C114.35713,84.6266143 115.719999,82.1607311 119.069874,82.1675808 C105.847085,85.5232285 99.5316486,90.3752126 100.123565,96.7235332 C100.715482,103.071854 117.808481,110.90445 151.402563,120.221321 C163.817197,115.580988 173.407273,108.607037 180.172792,99.2994659 C180.172792,94.16288 175.688742,89.6738481 166.720643,85.8323701 C167.390618,90.4594162 166.485139,93.7888632 164.004205,95.8207111 C161.523271,97.852559 157.045699,103.008909 150.571488,111.28976 Z" id="路径-233" fill="#B92C3F"></path>
                    <mask id="mask-4" fill="white">
                        <use xlink:href="#path-3"></use>
                    </mask>
                    <use id="路径-257" fill="#FFD69A" xlink:href="#path-3"></use>
                    <polygon id="路径-418" fill="#F0F0F0" points="136.29331 140.398298 190.951102 160.632773 170.731027 250.674376 165.032336 253.589116 107.880261 229.549984 130.42615 141.925423"></polygon>
                    <polygon id="路径-258" fill="#FEB954" points="127.718556 140.398298 186.589704 162.46014 164.680325 256.576351 101.449896 231.227048"></polygon>
                    <path d="M239.666997,200.59229 C244.713484,217.86365 247.236727,232.169668 247.236727,243.510344 C231.854539,250.84652 200.965933,237.840468 154.57091,204.492188 C138.980455,201.184099 129.019518,197.88929 124.688098,194.607762 C120.356678,191.326234 115.330178,184.003582 109.608599,172.639808 L132.867805,166.927166 L157.476682,182.23304 C157.594434,174.446947 159.47714,170.710931 163.124801,171.024992 C165.618025,177.979512 166.722138,184.424326 175.681601,191.534299 C184.641063,198.644272 216.236846,209.013772 226.512177,207.88076 C231.337193,205.621712 235.722133,203.192222 239.666997,200.59229 Z" id="路径-252" fill="#F4825B"></path>
                    <path d="M32.2026467,202.234136 C22.3825468,231.074459 20.1763127,247.013188 25.5839445,250.050323 C30.9915763,253.087458 38.1639961,252.777715 47.1012038,249.121094 L102.816087,212.85226 C127.128508,197.917663 140.409675,187.544427 142.659588,181.732551 C143.349825,179.85516 142.697289,179.038451 140.701979,179.282426 C142.242722,177.779217 143.667623,176.347341 144.976682,174.986796 C147.521474,173.319167 148.188963,169.075853 144.15906,169.075853 C146.519418,167.643395 147.699597,166.114776 147.699597,164.489995 C147.235564,161.48474 144.712084,161.013316 140.129157,163.075723 C140.129157,159.890934 135.75564,160.400391 133.385981,161.377451 C124.250638,165.73395 116.513954,169.953015 110.175931,174.034648 C112.763323,169.085403 112.574212,165.184301 109.608599,162.331344 C102.816087,172.915089 99.5961715,173.234216 91.871861,182.441057 C84.1070266,194.020465 77.7629411,202.872057 72.8396046,208.995835 L55.5823501,215.913485 L32.2026467,202.234136 Z" id="路径-253" fill="#FD8E68"></path>
                    <path d="M68.755979,308.454739 C83.118091,327.556833 92.2356638,337.576564 96.1086974,338.513931 C99.981731,339.451298 112.501661,340.901194 133.668487,342.86362 L290.610053,249.36075 C288.029802,237.428086 283.158947,231.461755 275.997489,231.461755 C265.255301,231.461755 204.831991,239.913006 143.445073,275.359235 C124.307438,249.36075 85.281808,188.381397 70.4719388,189.706732 C60.5986926,190.590289 60.026706,230.172958 68.755979,308.454739 Z" id="路径-237" fill="#2D5F7F"></path>
                    <polygon id="路径-239" fill="#FFA788" points="195.109216 292.751016 146.699617 334.496874 161.124466 352.249332 218.990155 320.958725"></polygon>
                    <polygon id="路径-246" fill="#FFA788" points="46.7442481 313.743661 53.1588807 362.12507 68.4601028 374.077798 79.1743691 368.839435 82.7377631 308.926677"></polygon>
                    <path d="M39.6006059,328.72439 L102.816087,319.471959 C94.8946375,273.190204 88.9425888,235.603578 84.959941,206.712082 C83.0713487,196.115387 78.4456312,190.003664 71.0827886,188.376913 C54.6360146,189.049878 43.3965774,198.090721 37.364477,215.499442 C32.3687287,242.204773 33.114105,279.946422 39.6006059,328.72439 Z" id="路径-236" fill="#386E91"></path>
                    <path d="M271.292052,231.63913 C278.91542,230.642565 284.197992,231.453544 287.139768,234.072066 C291.166844,237.656633 296.275112,245.534469 297.823412,253.0114 C298.863999,261.239188 297.823412,262.309172 296.275112,266.274545 C283.294802,294.047017 239.69328,331.072126 222.71305,338.743124 C210.030194,321.390206 194.428113,299.350785 189.80389,289.707729 C211.895129,268.236806 239.05785,248.880607 271.292052,231.63913 Z" id="路径-238" fill="#386E91"></path>
                    <g id="编组-16" transform="translate(157.918128, 372.904875) rotate(5.000000) translate(-157.918128, -372.904875) translate(108.938536, 317.802834)">
                        <mask id="mask-6" fill="white">
                            <use xlink:href="#path-5"></use>
                        </mask>
                        <use id="路径-240" fill="#FFFFFF" xlink:href="#path-5"></use>
                        <path d="M16.5706712,25.060786 C21.6189015,34.3348081 20.9990832,41.8917079 14.7112165,47.7314852 C21.1811092,53.5215805 25.3344893,56.7573988 27.1713568,57.4389399 C46.267804,54.9562623 60.0152463,57.9980137 68.4136838,66.564194 C81.0113401,79.4134646 84.7738061,85.156113 94.6807239,88.1462253 C97.0295957,88.8551633 97.8829253,84.9261852 97.2407127,76.3592908 L67.6723066,43.0162025 L80.865354,25.5076022 L43.8839873,-6.12244898 L16.5706712,25.060786 Z" id="路径-243" fill="#FACACA" mask="url(#mask-6)"></path>
                        <path d="M63.4319695,13.0592813 C54.928402,18.802565 48.5780054,35.6350646 48.5780054,39.5253707 C48.5780054,43.4156768 59.4108737,61.0311703 76.7814792,73.5461177 C83.1378548,78.5091478 89.6947744,75.846022 89.6947744,73.5461177 C89.6947744,72.0128481 82.3539518,60.6725991 67.6723066,39.5253707 L79.1805345,23.6319406 C72.0323906,15.0797047 66.7828689,11.555485 63.4319695,13.0592813 Z" id="路径-241" fill="#B92C3F" opacity="0.560523624" mask="url(#mask-6)"></path>
                        <path d="M4.23907844,34.2065928 C45.3679714,71.9178492 71.8818094,93.8459954 83.7805923,99.9910316 C89.1566685,103.24325 92.5266123,104.231107 93.8904236,102.9546 L93.8904236,111.477599 L76.2914541,109.047301 L-6.12244898,37.4182876 L4.23907844,34.2065928 Z" id="路径-242" fill="#B92C3F" mask="url(#mask-6)"></path>
                        <path d="M84.2432139,69.2998147 C85.6567629,72.6440602 80.7881258,73.1527523 77.7632733,70.8037707 C74.8286033,69.2183514 53.6987305,48.9013672 53.6987305,39.8950694 C53.6987305,33.8908708 57.0904583,25.9706666 63.8739138,16.1344567 L70.2696508,19.0354951 L66.1342076,41.8743791 C75.0515849,52.69305 81.0879203,61.8348618 84.2432139,69.2998147 Z" id="路径-244" fill="#7C1422" mask="url(#mask-6)"></path>
                        <path d="M66.0684221,59.7219019 L76.9740343,60.491194 L77.4700878,61.3920548 L76.1142857,63.9061224 L84.732014,67.5298781 L84.4948166,68.7065529 L73.1734295,68.7065529 L72.6339816,67.8047571 L74.3938776,64.5122449 L65.7881423,60.8970587 L66.0684221,59.7219019 Z M75.5326531,64.9897959 L74.1918367,67.4816327 L81.4591837,67.4816327 L75.5326531,64.9897959 Z M69.6734694,61.2 L74.9755102,63.4285714 L75.9428571,61.6408163 L69.6734694,61.2 Z" id="路径-245" fill="#000000" fill-rule="nonzero" mask="url(#mask-6)"></path>
                        <path d="M56.6160531,47.1286566 L66.8034435,48.9362937 L67.2384267,49.8239658 L65.944898,52.2673469 L73.4706889,56.4499233 L73.1389184,57.5964337 L63.068865,57.0278996 L62.5601902,56.1341519 L64.3102041,52.7632653 L56.211891,48.2667587 L56.6160531,47.1286566 Z M65.3816327,53.3571429 L64.077551,55.855102 L70.5428571,56.2163265 L65.3816327,53.3571429 Z M60.0061224,48.9673469 L64.8795918,51.6734694 L65.7612245,49.9897959 L60.0061224,48.9673469 Z" id="路径-245" fill="#000000" fill-rule="nonzero" mask="url(#mask-6)"></path>
                    </g>
                    <mask id="mask-8" fill="white">
                        <use xlink:href="#path-7"></use>
                    </mask>
                    <use id="路径-247" fill="#FFFFFF" xlink:href="#path-7"></use>
                    <path d="M10.2060746,421.351343 C19.9139031,424.11661 28.6368649,422.964332 36.3749601,417.894511 C44.1130554,412.82469 49.4518585,406.970987 52.3913696,400.333402 L68.4601028,400.333402 L70.2925702,417.205935 L82.7377631,407.674041 C80.5169138,397.279715 83.1845238,389.479077 90.7405931,384.272126 C92.1789625,374.758218 92.1789625,364.914297 90.7405931,354.740362 L62.6116332,366.218605 L10.2060746,421.351343 Z" id="路径-250" fill="#FACACA" mask="url(#mask-8)"></path>
                    <path d="M90.7405931,396.508889 L60.8931561,423.299984 C48.4662322,434.449737 40.3941459,440.830277 36.6768973,442.441606 C28.533894,446.468763 17.0049758,446.9509 2.0901427,443.888014 L0,454.480728 L28.4030214,455.910694 L59.8563058,441.423689 L98.1123136,403.330539 L90.7405931,396.508889 Z" id="路径-248" fill="#B92C3F" mask="url(#mask-8)"></path>
                    <path d="M72.8969029,362.622569 C61.0514884,391.437764 51.5434567,406.454921 44.3728077,407.674041 C37.2021587,408.893161 30.1732339,408.893161 23.2860332,407.674041 L44.3728077,355.348702 L70.8685427,353.462313 L72.8969029,362.622569 Z" id="路径-249" fill="#B92C3F" mask="url(#mask-8)"></path>
                    <path d="M44.3728077,402.270508 C37.2021587,403.489628 31.7898766,403.489628 28.1359614,402.270508 L44.3728077,355.348702 L70.8685427,353.462313 C60.3753684,384.781989 51.5434567,401.051388 44.3728077,402.270508 Z" id="路径-249" fill="#7C1422" mask="url(#mask-8)"></path>
                    <path d="M57.9804433,386.040124 L58.2420459,387.219392 L45.0612245,392.522449 L51.8242701,397.011814 L51.4973418,398.134108 L30.0428616,398.539681 L29.8023635,397.35971 L42.4469388,392.259184 L36.4818422,388.300354 L36.7875423,387.178865 L57.9804433,386.040124 Z M43.6836735,393.079592 L33.3428571,397.24898 L49.5122449,396.942857 L43.6836735,393.079592 Z M54.3734694,387.453061 L38.6938776,388.297959 L43.8244898,391.702041 L54.3734694,387.453061 Z" id="路径-251" fill="#000000" fill-rule="nonzero" mask="url(#mask-8)"></path>
                    <path d="M64.9493782,371.559461 L65.20519,372.727947 L53.0020408,378.330612 L59.9612861,383.221261 L59.6317353,384.334136 L38.1590691,385.11713 L37.8808583,383.949091 L50.5591837,378.116327 L42.8075366,372.67279 L43.1593292,371.559461 L64.9493782,371.559461 Z M51.7163265,378.92449 L41.1734694,383.779592 L57.7591837,383.173469 L51.7163265,378.92449 Z M62.1489796,372.783673 L45.0918367,372.783673 L51.844898,377.522449 L62.1489796,372.783673 Z" id="路径-251" fill="#000000" fill-rule="nonzero" mask="url(#mask-8)"></path>
                    <polygon id="路径" fill="#E25F32" fill-rule="nonzero" points="134.691859 165.351979 135.373261 166.369362 121.105858 175.9251 120.424456 174.907718"></polygon>
                    <polygon id="路径" fill="#E25F32" fill-rule="nonzero" points="139.932851 171.351597 140.658218 172.338115 125.433434 183.532586 124.708068 182.546067"></polygon>
                    <polygon id="路径-260" fill="#B92C3F" points="154.466279 114.421237 158.823489 143.030533 163.1807 144.799805 156.290856 114.421237"></polygon>
                    <polygon id="路径-260" fill="#B92C3F" points="145.953743 115.232382 143.181999 142.833227 147.699597 146.440529 148.597935 116.226383"></polygon>
                    <g id="编组-42" transform="translate(156.122449, 67.346939) scale(-1, 1) translate(-156.122449, -67.346939) translate(116.326531, 42.857143)">
                        <g id="编组-5" transform="translate(4.708319, 0.000000)">
                            <path d="M22.3367327,10.0159304 C24.5001925,10.0159304 26.6835661,10.4803405 28.7858925,11.2524669 C30.044699,11.7147917 31.0039242,12.1797046 31.5578855,12.4992731 C31.9972236,12.7527178 32.1479199,13.3143292 31.8944751,13.7536672 C31.6410304,14.1930052 31.0794191,14.3437015 30.640081,14.0902568 L29.8934913,13.7031522 C29.431938,13.4830845 28.8434635,13.230306 28.1526676,12.9765958 C26.2381059,12.2734302 24.2599244,11.8526651 22.3367327,11.8526651 C21.8295324,11.8526651 21.4183653,11.4414981 21.4183653,10.9342978 C21.4183653,10.4270975 21.8295324,10.0159304 22.3367327,10.0159304 Z" id="路径" fill="#8E3737" fill-rule="nonzero"></path>
                            <path d="M26.9324547,24.8039713 C28.6231223,24.8039713 29.5783287,22.4815213 29.5783287,20.4845506 C29.5783287,18.48758 28.6231223,16.2415485 26.9324547,16.2415485 C25.2417871,16.2415485 24.4360545,18.793883 24.4360545,20.4845506 C24.4360545,22.1752182 25.2417871,24.8039713 26.9324547,24.8039713 Z" id="椭圆形" fill="#5E120F" transform="translate(27.007192, 20.522760) rotate(-3.000000) translate(-27.007192, -20.522760) "></path>
                            <path d="M20.7991686,6.65456397 C29.2525066,6.65456397 35.3254879,13.4872976 35.3254879,21.9406356 C35.3254879,30.3939736 28.720985,36.9508417 20.267647,36.9508417 C11.814309,36.9508417 6.12244898,30.5106992 6.12244898,22.0573612 C6.12244898,13.6040232 12.3458306,6.65456397 20.7991686,6.65456397 Z M20.7991686,8.49129866 C13.526128,8.49129866 7.95918367,14.4450386 7.95918367,22.0573612 C7.95918367,29.6843806 13.0080118,35.1141071 20.267647,35.1141071 C27.7177276,35.1141071 33.4887532,29.3684621 33.4887532,21.9406356 C33.4887532,14.3177498 28.0625642,8.49129866 20.7991686,8.49129866 Z" id="椭圆形" fill="#000000" fill-rule="nonzero" transform="translate(20.723968, 21.802703) rotate(-6.000000) translate(-20.723968, -21.802703) "></path>
                            <path d="M46.9204418,13.323974 C51.6833726,10.9327159 56.4821781,10.4575321 61.2682584,11.912565 C61.7535288,12.0600938 62.0273226,12.5730789 61.8797938,13.0583493 C61.732265,13.5436198 61.2192799,13.8174135 60.7340095,13.6698847 C56.4076656,12.3546178 52.0940468,12.7817578 47.7445533,14.9654473 C47.291273,15.1930194 46.739333,15.0100467 46.5117609,14.5567664 C46.2841888,14.1034861 46.4671615,13.5515461 46.9204418,13.323974 Z" id="路径" fill="#8E3737" fill-rule="nonzero"></path>
                            <path d="M38.285928,38.0586201 L49.3514772,33.9768629 C50.5253452,39.498427 49.6419548,42.6051165 46.7013058,43.2969313 C43.7606569,43.9887461 40.955531,42.2426424 38.285928,38.0586201 Z" id="路径-422" fill="#D33A07"></path>
                            <path d="M54.1668158,25.4650194 C55.8574834,25.4650194 56.8126898,23.1425694 56.8126898,21.1455987 C56.8126898,19.1486281 55.8574834,16.9025966 54.1668158,16.9025966 C52.4761482,16.9025966 51.6704156,19.4549311 51.6704156,21.1455987 C51.6704156,22.8362663 52.4761482,25.4650194 54.1668158,25.4650194 Z" id="椭圆形" fill="#5E120F"></path>
                            <path d="M53.4549465,6.12244898 C61.9082845,6.12244898 68.761069,12.9752334 68.761069,21.4285714 C68.761069,29.8819094 61.9082845,36.7346939 53.4549465,36.7346939 C45.0016085,36.7346939 38.1488241,29.8819094 38.1488241,21.4285714 C38.1488241,12.9752334 45.0016085,6.12244898 53.4549465,6.12244898 Z M53.4549465,7.95918367 C46.0160091,7.95918367 39.9855588,13.989634 39.9855588,21.4285714 C39.9855588,28.8675089 46.0160091,34.8979592 53.4549465,34.8979592 C60.893884,34.8979592 66.9243343,28.8675089 66.9243343,21.4285714 C66.9243343,13.989634 60.893884,7.95918367 53.4549465,7.95918367 Z" id="椭圆形" fill="#000000" fill-rule="nonzero" transform="translate(53.454947, 21.428571) rotate(-6.000000) translate(-53.454947, -21.428571) "></path>
                            <path d="M36.4331447,15.9842293 C36.940345,15.9842293 37.3515121,16.3953963 37.3515121,16.9025966 C37.3515121,21.5929289 36.797482,26.5075059 35.0962399,29.1663072 L35.0020408,29.2897959 L35.7851405,29.6378413 C37.1998632,30.2215166 38.3506978,30.4959685 39.2218518,30.4747094 L39.7108562,30.4265766 C40.2097514,30.3351669 40.688288,30.6654991 40.7796977,31.1643943 C40.8711075,31.6632895 40.5407752,32.1418261 40.0418801,32.2332358 C38.3338068,32.5461963 36.049104,31.924066 33.1230865,30.4221906 C32.5460674,30.1260164 32.4495615,29.3412347 32.9376323,28.9140847 C34.7759811,27.305198 35.5147774,21.6451398 35.5147774,16.9025966 C35.5147774,16.3953963 35.9259444,15.9842293 36.4331447,15.9842293 Z" id="路径" fill="#E36539" fill-rule="nonzero"></path>
                        </g>
                    </g>
                    <polygon id="路径" fill="#E25F32" fill-rule="nonzero" points="139.709993 179.296701 140.364395 180.331657 128.045757 188.120739 127.391354 187.085784"></polygon>
                </g>
            </g>
        </g>
    </g>
</svg>