<?xml version="1.0" encoding="UTF-8"?>
<svg width="386px" height="665px" viewBox="0 0 386 665" version="1.1" xmlns="http://www.w3.org/2000/svg" xmlns:xlink="http://www.w3.org/1999/xlink">
    <!-- Generator: Sketch 63 (92445) - https://sketch.com -->
    <title>搬书女</title>
    <desc>Created with Sketch.</desc>
    <defs>
        <path d="M15.7635808,2.176982e-13 C14.8751289,9.23062528 7.53447469,42.2120137 6.69874064,47.1633415 C12.5484111,49.1670607 116.229736,60.2387082 120.801473,60.9039654 C125.72463,39.5170908 112.388916,32.1758861 102.839274,32.1758861 C93.2896322,32.1758861 65.5447591,30.3886209 61.2458293,22.7440066 C58.8039196,18.4016566 54.7354329,6.60906432 55.6413574,2.176982e-13 C52.7729085,2.176982e-13 16.4011637,2.176982e-13 15.7635808,2.176982e-13 Z" id="path-1"></path>
        <path d="M15.7635808,2.176982e-13 C14.8751289,9.23062528 7.53447469,42.2120137 6.69874064,47.1633415 C12.5484111,49.1670607 116.229736,60.2387082 120.801473,60.9039654 C125.72463,39.5170908 112.388916,32.1758861 102.839274,32.1758861 C93.2896322,32.1758861 65.5447591,30.3886209 61.2458293,22.7440066 C58.8039196,18.4016566 54.7354329,6.60906432 55.6413574,2.176982e-13 C52.7729085,2.176982e-13 16.4011637,2.176982e-13 15.7635808,2.176982e-13 Z" id="path-3"></path>
        <path d="M157.912923,177.572917 C182.40446,178.439453 213.295736,166.542969 202.446777,129.832031 C201.754395,126.984641 204.444824,126.453451 204.444824,121.48763 C203.916504,116.827311 200.572754,121.178711 198.042551,117.533854 C187.798665,97.90625 173.068674,81.4983724 151.037272,81.4983724 C122.318465,81.4983724 104.339355,103.683537 104.339355,132.402344 C104.339355,150.695218 112.781814,160.153657 127.558105,168.143229 C135.979779,172.696846 147.486991,177.572917 157.912923,177.572917 Z" id="path-5"></path>
        <path d="M129.076762,194.487305 C151.387265,191.966929 171.435082,196.696536 189.220215,208.676125 C208.100423,229.831118 228.87028,256.829633 251.529785,289.67167 C212.93085,326.167901 182.204288,348.883464 159.350098,357.818359 C141.734863,331.698544 135.172783,324.814927 127.252441,282.083008 C122.441557,256.127269 123.049664,226.928701 129.076762,194.487305 Z" id="path-7"></path>
    </defs>
    <g id="页面-1" stroke="none" stroke-width="1" fill="none" fill-rule="evenodd">
        <g id="iPhone-8" transform="translate(-58.000000, -209.000000)">
            <g id="编组-6" transform="translate(-87.000000, -14.000000)">
                <g id="搬书女" transform="translate(145.000000, 223.000000)">
                    <polygon id="路径-46" fill="#FFBCA2" points="314.299133 488.402344 288.339355 520.879883 316.462721 538.098633 340.776855 505.164341"></polygon>
                    <polygon id="路径-46" fill="#FFBCA2" points="234.641907 537.78418 208.682129 570.261719 236.805494 587.480469 261.119629 554.546177"></polygon>
                    <polygon id="路径-52" fill="#F2D482" points="262.563843 123.893677 262.563843 113.499146 330.047852 104.78833 330.047852 113.495117"></polygon>
                    <polygon id="路径-52" fill="#F2AF71" points="248.339355 141.63916 248.339355 134.364746 320.508301 123.594727 320.508301 130.488281"></polygon>
                    <polygon id="路径-52" fill="#F2D071" points="270.799805 130.9823 270.799805 122.590698 344.508301 111.146729 344.508301 120.076416"></polygon>
                    <g id="编组-3" transform="translate(320.000000, 568.000000) rotate(28.000000) translate(-320.000000, -568.000000) translate(256.000000, 536.000000)">
                        <path d="M63.3049721,2.95406852 C60.6455046,4.15482901 55.3922219,14.9395316 56.5850105,16.7261438 C57.9557818,18.7793463 65.1100691,13.6064062 68.050333,8.94948601 L68.5498086,8.08425074 C69.9888815,4.97602979 66.406006,1.55393908 63.3049721,2.95406852 Z M67.1142627,7.37868155 C65.1037281,11.2401422 58.2637145,16.3590093 57.9157015,15.8377399 C57.3572996,15.0013406 62.1069882,5.25048905 63.9633791,4.412321 C65.5782312,3.68320867 67.5119586,5.32365856 67.2461299,6.93266422 L67.1142627,7.37868155 Z" id="路径-25" fill="#000000" fill-rule="nonzero"></path>
                        <path d="M64.6473929,9.69682471 C61.9884573,10.8988986 56.7323801,21.6881156 57.9240236,23.4746212 C59.2940985,25.5286301 66.4485711,20.3513483 69.3899893,15.6919219 L69.8896926,14.8262399 C71.3295129,11.7169294 67.748486,8.29485662 64.6473929,9.69682471 Z M68.4541749,14.1206115 C66.4425811,17.9839394 59.6021987,23.1071633 59.2550841,22.5867709 C58.6971269,21.7502845 63.4499614,11.9940804 65.3065074,11.1547575 C66.9209357,10.4248933 68.8529314,12.064529 68.5862758,13.674286 L68.4541749,14.1206115 Z" id="路径-25" fill="#000000" fill-rule="nonzero" transform="translate(63.984384, 16.655352) rotate(33.000000) translate(-63.984384, -16.655352) "></path>
                        <mask id="mask-2" fill="white">
                            <use xlink:href="#path-1"></use>
                        </mask>
                        <use id="路径-19" fill="#B92C3F" xlink:href="#path-1"></use>
                        <path d="M100.216024,27.6682191 C101.591912,36.4376464 101.148387,44.9116896 98.8854472,53.0903486 C101.847717,53.4718313 112.560496,54.7118839 122.195455,55.5777 C125.620872,54.1453943 126.9417,49.350836 126.157939,41.1940253 L100.216024,27.6682191 Z" id="路径-21" fill="#F294A1" mask="url(#mask-2)"></path>
                        <path d="M9.46447754,27.6682191 C20.6244439,33.5169973 25.4629042,40.1002233 23.9798584,47.417897 C22.4968126,54.7355707 21.82626,56.7798069 21.9682007,53.5506056 L3.06732178,49.3561658 L9.46447754,27.6682191 Z" id="路径-23" fill="#F294A1" mask="url(#mask-2)"></path>
                        <polygon id="路径-22" fill="#FFE8E8" mask="url(#mask-2)" points="5.92220052 41.6229596 124.361532 55.5777 121.858993 63.8885066 -8.62931473e-16 48.9957207"></polygon>
                        <ellipse id="椭圆形" fill="#FFD1D1" mask="url(#mask-2)" transform="translate(30.311035, 17.634663) rotate(9.000000) translate(-30.311035, -17.634663) " cx="30.3110352" cy="17.6346627" rx="7.66649311" ry="7.65974803"></ellipse>
                        <polygon id="路径-24" fill="#000000" fill-rule="nonzero" mask="url(#mask-2)" points="73.5990296 30.201745 74.9601691 30.357728 76.216 33.12 80.7999764 31.5030567 81.768562 32.6412367 78.439386 38.7265556 77.010442 38.6762294 75.376 35.112 70.2673838 36.9334915 69.3661655 35.6910938"></polygon>
                        <polygon id="路径-24" fill="#000000" fill-rule="nonzero" mask="url(#mask-2)" points="63.3630725 27.1211183 64.6170152 27.442384 65.736 30.272 70.955737 29.3317057 71.7296369 30.6108336 67.568808 35.9451354 66.1946522 35.7487707 64.744 32.088 58.2739668 33.281347 57.6186962 31.8784601"></polygon>
                    </g>
                    <g id="编组-3" transform="translate(235.832520, 612.846680) rotate(28.000000) translate(-235.832520, -612.846680) translate(171.832520, 580.846680)">
                        <path d="M63.3049721,2.95406852 C60.6455046,4.15482901 55.3922219,14.9395316 56.5850105,16.7261438 C57.9557818,18.7793463 65.1100691,13.6064062 68.050333,8.94948601 L68.5498086,8.08425074 C69.9888815,4.97602979 66.406006,1.55393908 63.3049721,2.95406852 Z M67.1142627,7.37868155 C65.1037281,11.2401422 58.2637145,16.3590093 57.9157015,15.8377399 C57.3572996,15.0013406 62.1069882,5.25048905 63.9633791,4.412321 C65.5782312,3.68320867 67.5119586,5.32365856 67.2461299,6.93266422 L67.1142627,7.37868155 Z" id="路径-25" fill="#000000" fill-rule="nonzero"></path>
                        <path d="M64.6473929,9.69682471 C61.9884573,10.8988986 56.7323801,21.6881156 57.9240236,23.4746212 C59.2940985,25.5286301 66.4485711,20.3513483 69.3899893,15.6919219 L69.8896926,14.8262399 C71.3295129,11.7169294 67.748486,8.29485662 64.6473929,9.69682471 Z M68.4541749,14.1206115 C66.4425811,17.9839394 59.6021987,23.1071633 59.2550841,22.5867709 C58.6971269,21.7502845 63.4499614,11.9940804 65.3065074,11.1547575 C66.9209357,10.4248933 68.8529314,12.064529 68.5862758,13.674286 L68.4541749,14.1206115 Z" id="路径-25" fill="#000000" fill-rule="nonzero" transform="translate(63.984384, 16.655352) rotate(33.000000) translate(-63.984384, -16.655352) "></path>
                        <mask id="mask-4" fill="white">
                            <use xlink:href="#path-3"></use>
                        </mask>
                        <use id="路径-19" fill="#B92C3F" xlink:href="#path-3"></use>
                        <path d="M100.216024,27.6682191 C101.591912,36.4376464 101.148387,44.9116896 98.8854472,53.0903486 C101.847717,53.4718313 112.560496,54.7118839 122.195455,55.5777 C125.620872,54.1453943 126.9417,49.350836 126.157939,41.1940253 L100.216024,27.6682191 Z" id="路径-21" fill="#F294A1" mask="url(#mask-4)"></path>
                        <path d="M9.46447754,27.6682191 C20.6244439,33.5169973 25.4629042,40.1002233 23.9798584,47.417897 C22.4968126,54.7355707 21.82626,56.7798069 21.9682007,53.5506056 L3.06732178,49.3561658 L9.46447754,27.6682191 Z" id="路径-23" fill="#F294A1" mask="url(#mask-4)"></path>
                        <polygon id="路径-22" fill="#FFE8E8" mask="url(#mask-4)" points="5.92220052 41.6229596 124.361532 55.5777 121.858993 63.8885066 -8.62931473e-16 48.9957207"></polygon>
                        <ellipse id="椭圆形" fill="#FFD1D1" mask="url(#mask-4)" transform="translate(30.311035, 17.634663) rotate(9.000000) translate(-30.311035, -17.634663) " cx="30.3110352" cy="17.6346627" rx="7.66649311" ry="7.65974803"></ellipse>
                        <polygon id="路径-24" fill="#000000" fill-rule="nonzero" mask="url(#mask-4)" points="73.5990296 30.201745 74.9601691 30.357728 76.216 33.12 80.7999764 31.5030567 81.768562 32.6412367 78.439386 38.7265556 77.010442 38.6762294 75.376 35.112 70.2673838 36.9334915 69.3661655 35.6910938"></polygon>
                        <polygon id="路径-24" fill="#000000" fill-rule="nonzero" mask="url(#mask-4)" points="63.3630725 27.1211183 64.6170152 27.442384 65.736 30.272 70.955737 29.3317057 71.7296369 30.6108336 67.568808 35.9451354 66.1946522 35.7487707 64.744 32.088 58.2739668 33.281347 57.6186962 31.8784601"></polygon>
                    </g>
                    <polygon id="路径-52" fill="#DFE4A8" points="258.549316 156.864258 257.59668 140.183228 346.925781 126.414062 346.925781 142.266113"></polygon>
                    <polygon id="路径-52" fill="#E4A8A8" points="235.226074 179.03894 232.58252 156.082862 360.687012 136.402344 360.687012 159.166992"></polygon>
                    <polygon id="路径-52" fill="#CB7F7F" points="230.844238 195.933659 228.51416 176.008261 372.861816 156.082862 371.003418 179.03894"></polygon>
                    <polygon id="路径-51" fill="#AD5B5B" points="216.720572 191.582031 254.9026 280.209961 352.406738 267.320313 385.339355 169.077148"></polygon>
                    <path d="M290.197754,214.291016 C295.383771,210.598617 298.247541,206.437484 298.789063,201.807617 C301.485596,190.005859 302.336914,189.098877 298.789063,178.701172 C295.241211,168.303467 308.491699,175.614502 310.104492,185.912354 C316.041341,177.300863 322.547363,171.286662 329.622559,167.869751 C331.666952,167.024254 333.060425,166.74451 333.802979,167.030518 C335.146118,167.547852 335.650757,169.119873 335.210327,170.304443 C339.737793,167.239028 342.979034,166.744887 343.531738,167.030518 C345.459429,168.026724 344.502273,169.355808 343.925049,171.267822 C343.247559,173.511963 351.647461,169.91333 352.763184,172.182129 C353.157826,172.984626 353.617676,174.880859 349.78125,177.870605 C345.944824,180.860352 353.892456,178.983276 354.23938,181.366211 C354.470662,182.954834 353.978597,184.919118 352.763184,187.259062 C336.900553,211.035573 321.400228,224.389648 306.262207,227.321289 C291.124186,230.25293 285.769368,225.909505 290.197754,214.291016 Z" id="路径-48" fill="#FFBCA2"></path>
                    <path d="M245.271665,306.337155 C227.1638,326.881557 237.544764,341.494904 276.414556,350.177196 C284.359868,359.851675 296.747889,377.376415 313.578618,402.751415 L254.229204,491.92329 L336.122659,539.480081 C354.529918,493.485478 369.425201,448.351683 380.808507,404.078698 C386.066696,383.628074 372.920452,368.193713 366.342695,362.815772 C313.010489,328.606301 274.597474,303.381078 251.10365,287.140105 L245.271665,306.337155 Z" id="路径-45" fill="#5E93B3" transform="translate(309.330371, 413.310093) rotate(-8.000000) translate(-309.330371, -413.310093) "></path>
                    <path d="M187.789482,326.506787 C174.971168,362.9632 187.996908,385.532552 226.866699,394.214844 C234.812012,403.889323 247.200033,421.414062 264.030762,446.789062 L204.681348,535.960937 L292.097168,587.480469 C310.683265,521.335395 321.912351,474.438259 325.784424,446.789062 C326.985326,438.21382 327.666016,430.415283 324.462158,422.407715 C292.96346,358.504875 263.598307,314.257545 236.366699,289.665725 L187.789482,326.506787 Z" id="路径-45" fill="#376F90"></path>
                    <path d="M144.065918,167.355717 C143.568362,186.44745 140.186486,198.641566 133.92029,203.938065 C127.654094,209.234563 139.366374,210.090495 169.057129,206.505859 C172.303874,192.595052 173.397949,181.754883 172.339355,173.985352 C171.280762,166.21582 161.856283,164.005942 144.065918,167.355717 Z" id="路径-41" fill="#FFBCA2"></path>
                    <path d="M120.015462,158.121745 C111.490506,159.808811 104.358236,163.499674 98.6186523,169.194336 C90.0092773,177.736328 86.4962565,186.061849 85.9165039,191.493164 C84.3854776,205.836328 104.9539,210.007433 120.963704,191.981445 C127.52577,184.59299 130.107151,175.526584 128.707845,164.782227 L120.015462,158.121745 Z" id="路径-39" fill="#5E120F"></path>
                    <path d="M100.11146,201.188089 C91.0131606,202.491298 83.5942192,205.990233 77.8546359,211.684894 C69.2452609,220.226886 68.0098852,223.29559 68.0685519,228.763326 C68.0958031,231.303135 66.0036036,235.431103 69.4461645,235.139535 C84.6988224,233.847709 90.5567099,238.238631 101.462856,225.959028 C108.024922,218.570573 109.986775,210.618983 107.348416,202.104256 L100.11146,201.188089 Z" id="路径-39" fill="#5E120F" transform="translate(87.973419, 218.171137) rotate(-17.000000) translate(-87.973419, -218.171137) "></path>
                    <mask id="mask-6" fill="white">
                        <use xlink:href="#path-5"></use>
                    </mask>
                    <use id="椭圆形" fill="#FFBCA2" xlink:href="#path-5"></use>
                    <path d="M132.155111,83.2246094 C153.352376,72.2207031 170.759494,75.2611762 184.376465,92.3460286 C187.730632,96.9130859 192.430862,100.704427 196.485514,102.111979 C192.558973,105.118869 170.089681,99.0172526 157.912923,83.8626302 C156.856636,82.548025 148.270699,82.3353514 132.155111,83.2246094 Z" id="路径-36" fill="#5E120F"></path>
                    <path d="M152.339355,80.108724 C161.982585,83.3847656 172.162923,104.060209 161.469564,130.874505 C152.690918,143.451823 154.824056,144.811523 154.824056,147.201172 C153.167589,143.093533 149.897407,140.83138 145.013509,140.414714 C138.829047,140.228516 136.224338,142.957899 137.199382,148.602865 C138.174425,154.24783 143.529243,157.070313 153.263835,157.070313 C153.772864,157.745185 153.957543,158.589424 153.817871,159.603027 C153.263835,160.962077 151.832845,159.974935 151.061361,162.049805 C150.289876,164.124674 145.000521,171.819188 135.98877,170.985026 C125.491048,170.013318 103.046387,158.645833 101.859538,130.874505 C100.576335,109.223307 121.784017,74.1171875 152.339355,80.108724 Z" id="路径-35" fill="#5E120F"></path>
                    <path d="M157.761496,113.616155 C164.897255,112.240603 170.941234,113.51095 175.828125,117.438263 C176.172522,117.715035 176.227343,118.218592 175.950571,118.562989 C175.673799,118.907386 175.170243,118.962206 174.825846,118.685434 C170.32298,115.066741 164.757584,113.896984 158.06435,115.187231 C157.63051,115.270862 157.211016,114.986961 157.127385,114.55312 C157.043754,114.119279 157.327655,113.699786 157.761496,113.616155 Z" id="路径" fill="#4D1616" fill-rule="nonzero"></path>
                    <path d="M168.339355,104.402344 C181.594189,104.402344 192.339355,115.14751 192.339355,128.402344 C192.339355,141.657178 181.594189,152.402344 168.339355,152.402344 C155.084521,152.402344 144.339355,141.657178 144.339355,128.402344 C144.339355,115.14751 155.084521,104.402344 168.339355,104.402344 Z M168.339355,107.602344 C156.851833,107.602344 147.539355,116.914821 147.539355,128.402344 C147.539355,139.889867 156.851833,149.202344 168.339355,149.202344 C179.826878,149.202344 189.139355,139.889867 189.139355,128.402344 C189.139355,116.914821 179.826878,107.602344 168.339355,107.602344 Z" id="椭圆形" fill="#110404" fill-rule="nonzero"></path>
                    <ellipse id="椭圆形" fill="#321313" transform="translate(172.339355, 128.402344) rotate(-19.000000) translate(-172.339355, -128.402344) " cx="172.339355" cy="128.402344" rx="4" ry="8"></ellipse>
                    <path d="M189.220215,147.67513 L198.042551,143.893229 C197.039079,151.281684 195.56869,155.312066 193.631383,155.984375 C191.694076,156.656684 190.223687,153.886936 189.220215,147.67513 Z" id="路径-37" fill="#B64E2B"></path>
                    <path d="M3.55271368e-14,244.218262 C19.8731578,229.426353 45.1425263,225.753013 75.8081055,233.198242 C77.9427828,245.611755 74.8867188,257.425781 57.0146484,266.208496 C39.1425781,274.991211 24.7016602,268.069824 21.6464844,260.033203 C21.5570626,259.79798 18.2895508,253.235352 12.21875,249.672363 C12.1076062,249.495252 21.7624253,249.845118 21.6464844,249.672363 C18.5813587,245.10526 11.3658639,243.287226 3.55271368e-14,244.218262 Z" id="路径-40" fill="#5E120F"></path>
                    <mask id="mask-8" fill="white">
                        <use xlink:href="#path-7"></use>
                    </mask>
                    <use id="路径-42" fill="#FEB954" xlink:href="#path-7"></use>
                    <path d="M127.603027,191.582031 L124.049178,216.423828 C145.312291,208.842255 168.075684,206.259687 192.339355,208.676125 C182.176595,198.778821 160.597819,193.08079 127.603027,191.582031 Z" id="路径-43" fill="#D8D8D8" mask="url(#mask-8)"></path>
                    <path d="M166.619954,265.222656 C181.922926,290.934398 205.413824,306.104522 237.092647,310.733028 C268.771471,315.361534 275.132507,309.154125 256.175757,292.110799 L166.619954,265.222656 Z" id="路径-47" fill="#F9A832" mask="url(#mask-8)"></path>
                    <path d="M175.326986,221.076172 C204.430284,233.964467 229.831217,242.728139 251.529785,247.367188 C260.314941,240.553385 271.740397,226.398682 285.806152,204.903076 L322.23584,233.707031 C292.474121,274.503581 272.462402,295.402018 262.200684,296.402344 C251.938965,297.402669 220.078722,287.562826 166.619954,266.882813 L175.326986,221.076172 Z" id="路径-44" fill="#FEB954"></path>
                    <path d="M342.68848,172.371959 L343.110836,173.051381 L341.545323,174.063193 L340.81441,174.552188 C339.664684,175.327973 338.515021,176.136283 337.399807,176.961113 L335.215098,178.63646 L333.667992,179.902746 L331.41701,181.845448 L328.591451,184.427476 L327.312033,185.651579 L326.751444,185.080843 L328.658367,183.270023 L330.887003,181.246199 L333.943193,178.63584 L335.26471,177.57825 C336.347593,176.73253 337.481454,175.896262 338.632266,175.085067 L341.744342,172.975045 L342.68848,172.371959 Z" id="路径" fill="#DE5728" fill-rule="nonzero"></path>
                    <path d="M332.550903,172.64209 C331.784419,173.15928 330.422003,174.226573 328.463654,175.843969 L326.916549,177.110255 L324.665566,179.052958 L321.840008,181.634986 L320.560589,182.859088 L320,182.288352 L321.906924,180.477532 L324.135559,178.453708 L327.191749,175.843349 L328.513267,174.785759 C329.596149,173.940039 330.730011,173.103771 331.880822,172.292576 L332.550903,172.64209 Z" id="路径" fill="#DE5728" fill-rule="nonzero"></path>
                    <path d="M346.666675,179.649243 L347.184887,180.258716 L343.150237,183.711299 C337.833639,188.294408 334.760015,191.098559 334.288778,191.753423 L334.226391,191.866224 C334.18027,192.08227 333.967741,192.220022 333.751695,192.1739 C333.53565,192.127779 333.397898,191.915251 333.44402,191.699205 C333.588466,191.02257 337.288949,187.648449 345.222548,180.879202 L346.666675,179.649243 Z" id="路径" fill="#DE5728" fill-rule="nonzero"></path>
                    <path d="M284.423828,12.4638672 C273.708333,32.4261068 260.739421,46.8557943 245.51709,55.7529297 C259.590007,69.6858724 275.261556,85.3871299 292.531738,102.856702 C311.18278,97.8282106 327.373861,86.4179687 341.10498,68.6259766 C339.142415,66.2698568 320.248698,47.5491536 284.423828,12.4638672 Z" id="路径-53" fill="#FF6368"></path>
                    <path d="M262.563843,26.1396484 C265.207153,21.0882161 266.528809,13.0660807 266.528809,2.07324219 L282.661621,12.4638672 L339.006836,68.6557617 C329.37793,82.7569412 314.098063,94.0895828 293.167236,102.653687 C293.167236,96.1846924 293.167236,91.9026405 293.167236,89.8075309 C279.456928,69.4023827 269.255796,48.1797552 262.563843,26.1396484 Z" id="路径-55" fill="#FFA2A5"></path>
                    <path d="M257.59668,3.55271368e-14 C255.396484,24.6217448 250.920736,41.0690104 244.169434,49.3417969 C258.24235,63.2747396 274.363118,78.5987956 292.531738,95.3139648 C304.048014,89.5131836 312.366048,76.4790039 317.48584,56.2114258 C315.523275,53.855306 295.560221,35.1181641 257.59668,3.55271368e-14 Z" id="路径-53" fill="#FF6368"></path>
                    <polygon id="路径-54" fill="#E5484D" points="244.169434 49.3417969 244.169434 55.6010742 292.531738 102.856702 293.167236 102.653687 293.167236 94.9732666 292.531738 95.3139648"></polygon>
                </g>
            </g>
        </g>
    </g>
</svg>