<?xml version="1.0" standalone="no"?><!DOCTYPE svg PUBLIC "-//W3C//DTD SVG 1.1//EN" "http://www.w3.org/Graphics/SVG/1.1/DTD/svg11.dtd"><svg t="1630331009563" class="icon" viewBox="0 0 1024 1024" version="1.1" xmlns="http://www.w3.org/2000/svg" p-id="16703" xmlns:xlink="http://www.w3.org/1999/xlink" width="32" height="32"><defs><style type="text/css"></style></defs><path d="M422.64 503.93H187.75a57.13 57.13 0 0 1-57.07-57.07V212a57.13 57.13 0 0 1 57.07-57.07h234.89A57.13 57.13 0 0 1 479.71 212v234.86a57.13 57.13 0 0 1-57.07 57.07z m-234.89-309A17.09 17.09 0 0 0 170.68 212v234.86a17.09 17.09 0 0 0 17.07 17.07h234.89a17.09 17.09 0 0 0 17.07-17.07V212a17.09 17.09 0 0 0-17.07-17.07zM693.05 515.42a51 51 0 0 1-36.34-15L516.09 359.75a51.45 51.45 0 0 1 0-72.67l140.62-140.62a51.39 51.39 0 0 1 72.67 0L870 287.08a51.43 51.43 0 0 1 0 72.67L729.38 500.37a51 51 0 0 1-36.33 15.05z m0-344a11.31 11.31 0 0 0-8 3.33L544.38 315.36a11.41 11.41 0 0 0 0 16.11L685 472.09a11.4 11.4 0 0 0 16.1 0l140.62-140.62a11.41 11.41 0 0 0 0-16.11L701.1 174.74a11.31 11.31 0 0 0-8.05-3.33z" p-id="16704" fill="#2c2c2c"></path><path d="M422.64 891.82H187.75a57.13 57.13 0 0 1-57.07-57.07V599.86a57.13 57.13 0 0 1 57.07-57.07h234.89a57.13 57.13 0 0 1 57.07 57.07v234.89a57.13 57.13 0 0 1-57.07 57.07z m-234.89-309a17.09 17.09 0 0 0-17.07 17.07v234.86a17.09 17.09 0 0 0 17.07 17.07h234.89a17.09 17.09 0 0 0 17.07-17.07V599.86a17.09 17.09 0 0 0-17.07-17.07z" p-id="16705" fill="#2c2c2c"></path><path d="M810.49 891.82H575.6a57.13 57.13 0 0 1-57.07-57.07V599.86a57.13 57.13 0 0 1 57.07-57.07h234.89a57.13 57.13 0 0 1 57.07 57.07v234.89a57.13 57.13 0 0 1-57.07 57.07z m-234.89-309a17.09 17.09 0 0 0-17.07 17.07v234.86a17.09 17.09 0 0 0 17.07 17.07h234.89a17.09 17.09 0 0 0 17.07-17.07V599.86a17.08 17.08 0 0 0-17.07-17.07z" p-id="16706" fill="#2c2c2c"></path></svg>